<svg id="Layer_1" data-name="Layer 1" xmlns="http://www.w3.org/2000/svg" viewBox="0 0 385.55 291.66"><defs><style>.cls-1{fill:#fff;}</style></defs><path class="cls-1" d="M76.29,281.67c0,5.37-2.75,8.25-8.12,8.25H57.06c-4.87,0-6.74-2.38-9.12-6.87l-20.47-37A78.77,78.77,0,0,1,21.85,232h-1a119.29,119.29,0,0,1,1,14.74v43.2H0V212c0-5.37,2.87-8.24,8.24-8.24h11c4.87,0,6.61,2.37,9.11,6.86l19.73,35.59a111.17,111.17,0,0,1,6.49,14.35h1c-.5-5.12-.87-10-.87-15.1l-.13-41.7H76.29Z"/><path class="cls-1" d="M188.53,255c0,26.84-9.37,36.7-35.21,36.7-27.72,0-37.71-9.86-37.71-36.7V203.77h23.48V255c0,14.73,3,18.72,13,18.72s13-4,13-18.72V203.77h23.47Z"/><path class="cls-1" d="M289.53,288.92c-12.23,1.37-28.46,1.37-42.7,1.37-11.73,0-19.6-7.37-19.6-18.48V221.87c0-11.11,8-18.48,19.6-18.48,14.24,0,30.47,0,42.7,1.37l-1.12,16.86H256.07c-3.49,0-5.37,1.87-5.37,5.37v10.49h33.09v16.1H250.7v13.11c0,3.5,1.88,5.37,5.37,5.37h32.34Z"/><path class="cls-1" d="M349.34,265.82c0,3.49,1.87,5.37,5.87,5.37h29.21l1.13,17.6c-12.24,1.5-26.22,1.5-39.58,1.5-13.11,0-20.1-7.74-20.1-19V203.77h23.47Z"/><path class="cls-1" d="M263.2,43.17a83.43,83.43,0,0,1-36.87,112.06l-.87.43a10.73,10.73,0,0,1-14.32-4.78L187,103a13.19,13.19,0,0,0-18.07-5.64,13.49,13.49,0,0,0-5.37,17.73l15.63,31a10.71,10.71,0,0,1-12.32,15.19A83.42,83.42,0,0,1,151.72,6l.64-.31a10.72,10.72,0,0,1,14.25,4.81L196,68.64a13.52,13.52,0,0,0,17.59,6.18A13.2,13.2,0,0,0,219.62,57L198.71,15.57A10.72,10.72,0,0,1,211.15.41,83.22,83.22,0,0,1,263.2,43.17Z"/></svg>